<svg width="24" height="20" viewBox="0 0 24 20" fill="none" xmlns="http://www.w3.org/2000/svg">
<g id="icn resize icn-sm" clip-path="url(#clip0_1479_22446)">
<path id="Vector" fill-rule="evenodd" clip-rule="evenodd" d="M22.9585 19.3334C22.9585 19.3334 24.5002 19.3334 24.5002 17.7779C24.5002 16.2223 22.9585 11.5556 16.7918 11.5556C10.6252 11.5556 9.0835 16.2223 9.0835 17.7779C9.0835 19.3334 10.6252 19.3334 10.6252 19.3334H22.9585ZM10.6591 17.7779H22.9246C22.9318 17.777 22.939 17.776 22.9462 17.7747L22.9585 17.7716C22.9554 17.361 22.701 16.1694 21.7868 15.0961C20.9358 14.0896 19.4404 13.1112 16.7918 13.1112C14.1448 13.1112 12.6494 14.0912 11.7968 15.0961C10.8826 16.1694 10.6267 17.3625 10.6252 17.7716C10.6364 17.7738 10.6478 17.7759 10.6591 17.7779ZM16.7918 8.44453C17.6096 8.44453 18.3938 8.11675 18.9721 7.5333C19.5503 6.94986 19.8752 6.15853 19.8752 5.33341C19.8752 4.5083 19.5503 3.71697 18.9721 3.13353C18.3938 2.55008 17.6096 2.2223 16.7918 2.2223C15.9741 2.2223 15.1898 2.55008 14.6116 3.13353C14.0333 3.71697 13.7085 4.5083 13.7085 5.33341C13.7085 6.15853 14.0333 6.94986 14.6116 7.5333C15.1898 8.11675 15.9741 8.44453 16.7918 8.44453ZM21.4168 5.33341C21.4168 5.94625 21.2972 6.55308 21.0648 7.11927C20.8323 7.68546 20.4917 8.19991 20.0622 8.63325C19.6327 9.06659 19.1229 9.41033 18.5617 9.64485C18.0006 9.87937 17.3992 10.0001 16.7918 10.0001C16.1845 10.0001 15.583 9.87937 15.0219 9.64485C14.4608 9.41033 13.9509 9.06659 13.5215 8.63325C13.092 8.19991 12.7513 7.68546 12.5189 7.11927C12.2865 6.55308 12.1668 5.94625 12.1668 5.33341C12.1668 4.09574 12.6541 2.90875 13.5215 2.03358C14.3888 1.15841 15.5652 0.666748 16.7918 0.666748C18.0185 0.666748 19.1948 1.15841 20.0622 2.03358C20.9296 2.90875 21.4168 4.09574 21.4168 5.33341ZM10.5265 11.9912C9.9098 11.7953 9.2741 11.6664 8.63025 11.607C8.26847 11.5723 7.90524 11.5551 7.54183 11.5556C1.37516 11.5556 -0.166504 16.2223 -0.166504 17.7779C-0.166504 18.8154 0.346871 19.3334 1.37516 19.3334H7.87483C7.64628 18.8478 7.53231 18.3154 7.54183 17.7779C7.54183 16.2067 8.12304 14.6014 9.22225 13.2605C9.59687 12.8032 10.0332 12.3754 10.5265 11.9912ZM7.4185 13.1112C4.847 13.1423 3.38704 14.1067 2.54683 15.0961C1.62645 16.1756 1.37516 17.3719 1.37516 17.7779H6.00016C6.00016 16.1523 6.49812 14.533 7.4185 13.1112ZM2.146 6.11119C2.146 4.87352 2.63327 3.68653 3.50063 2.81136C4.36798 1.93619 5.54437 1.44453 6.771 1.44453C7.99762 1.44453 9.17401 1.93619 10.0414 2.81136C10.9087 3.68653 11.396 4.87352 11.396 6.11119C11.396 7.34887 10.9087 8.53585 10.0414 9.41102C9.17401 10.2862 7.99762 10.7779 6.771 10.7779C5.54437 10.7779 4.36798 10.2862 3.50063 9.41102C2.63327 8.53585 2.146 7.34887 2.146 6.11119ZM6.771 3.00008C5.95324 3.00008 5.16899 3.32786 4.59075 3.9113C4.01251 4.49475 3.68766 5.28607 3.68766 6.11119C3.68766 6.93631 4.01251 7.72763 4.59075 8.31108C5.16899 8.89453 5.95324 9.2223 6.771 9.2223C7.58875 9.2223 8.373 8.89453 8.95124 8.31108C9.52948 7.72763 9.85433 6.93631 9.85433 6.11119C9.85433 5.28607 9.52948 4.49475 8.95124 3.9113C8.373 3.32786 7.58875 3.00008 6.771 3.00008Z" fill="white"/>
</g>
<defs>
<clipPath id="clip0_1479_22446">
<rect width="24" height="19.7647" fill="white"/>
</clipPath>
</defs>
</svg>
